<?xml version="1.0" encoding="UTF-8"?>
<svg xmlns="http://www.w3.org/2000/svg" xmlns:xlink="http://www.w3.org/1999/xlink" width="232.5pt" height="195.000001pt" viewBox="0 0 232.5 195.000001" version="1.2">
<defs>
<clipPath id="clip1">
  <path d="M 2 80 L 231 80 L 231 194.003906 L 2 194.003906 Z M 2 80 "/>
</clipPath>
</defs>
<g id="surface1">
<path style=" stroke:none;fill-rule:nonzero;fill:rgb(0%,0%,0%);fill-opacity:1;" d="M 113.261719 8.011719 C 103.078125 10.535156 97.566406 14.746094 94.765625 22.042969 C 94.113281 23.632812 93.269531 29.058594 92.898438 34.199219 C 92.242188 42.339844 92.335938 43.835938 93.832031 46.828125 C 94.859375 48.605469 95.886719 50.945312 96.261719 51.972656 L 96.820312 53.84375 L 97.660156 51.972656 C 98.035156 50.945312 98.875 48.324219 99.4375 46.171875 C 100.558594 41.589844 100.277344 41.777344 113.449219 40.375 C 118.304688 39.8125 125.21875 38.972656 128.765625 38.410156 C 136.144531 37.289062 141.003906 37.941406 142.03125 40.09375 C 142.5 41.027344 142.964844 45.425781 143.339844 50.101562 L 143.804688 58.519531 L 146.328125 54.683594 C 147.636719 52.628906 149.597656 48.136719 150.625 44.769531 C 151.652344 41.402344 153.425781 37.289062 154.453125 35.511719 C 156.882812 31.582031 157.910156 25.222656 156.511719 22.601562 C 155.761719 21.199219 154.546875 20.640625 152.304688 20.640625 C 150.53125 20.640625 148.664062 20.078125 148.101562 19.328125 C 147.542969 18.582031 145.675781 17.457031 143.992188 16.804688 C 142.3125 16.148438 139.695312 14.277344 138.109375 12.6875 C 133.15625 7.730469 122.414062 5.671875 113.261719 8.011719 Z M 113.261719 8.011719 "/>
<path style=" stroke:none;fill-rule:nonzero;fill:rgb(0%,0%,0%);fill-opacity:1;" d="M 110.363281 48.230469 C 117.089844 51.316406 119.050781 51.785156 119.050781 50.570312 C 119.050781 49.074219 111.671875 45.894531 108.308594 45.988281 C 105.789062 45.988281 105.882812 46.171875 110.363281 48.230469 Z M 110.363281 48.230469 "/>
<path style=" stroke:none;fill-rule:nonzero;fill:rgb(0%,0%,0%);fill-opacity:1;" d="M 107.1875 51.222656 C 105.882812 51.691406 105.507812 54.3125 106.722656 54.3125 C 107.097656 54.3125 107.9375 53.84375 108.589844 53.1875 C 109.429688 52.347656 109.710938 52.441406 109.710938 53.65625 C 109.710938 55.808594 112.140625 56.742188 113.820312 55.339844 C 114.847656 54.40625 115.410156 54.589844 116.0625 55.902344 C 117.183594 57.867188 118.398438 57.117188 117.652344 55.058594 C 116.71875 52.722656 109.804688 50.195312 107.1875 51.222656 Z M 107.1875 51.222656 "/>
<path style=" stroke:none;fill-rule:nonzero;fill:rgb(0%,0%,0%);fill-opacity:1;" d="M 133.53125 53.375 C 132.316406 53.84375 132.222656 54.21875 133.0625 54.21875 C 133.8125 54.21875 135.304688 53.84375 136.332031 53.375 C 137.546875 52.90625 137.640625 52.535156 136.800781 52.535156 C 136.054688 52.535156 134.558594 52.90625 133.53125 53.375 Z M 133.53125 53.375 "/>
<path style=" stroke:none;fill-rule:nonzero;fill:rgb(0%,0%,0%);fill-opacity:1;" d="M 130.167969 57.773438 C 129.234375 58.894531 129.140625 59.175781 130.074219 58.613281 C 130.730469 58.238281 131.847656 58.332031 132.503906 58.894531 C 133.996094 60.203125 136.800781 59.269531 136.800781 57.492188 C 136.800781 55.621094 131.757812 55.808594 130.167969 57.773438 Z M 130.167969 57.773438 "/>
<path style=" stroke:none;fill-rule:nonzero;fill:rgb(0%,0%,0%);fill-opacity:1;" d="M 138.386719 58.144531 C 139.042969 58.800781 139.789062 59.082031 140.070312 58.800781 C 140.351562 58.519531 139.882812 57.957031 138.949219 57.679688 C 137.640625 57.117188 137.546875 57.210938 138.386719 58.144531 Z M 138.386719 58.144531 "/>
<path style=" stroke:none;fill-rule:nonzero;fill:rgb(0%,0%,0%);fill-opacity:1;" d="M 108.03125 77.882812 C 109.710938 80.3125 111.578125 81.15625 111.578125 79.378906 C 111.578125 77.695312 109.710938 75.824219 108.03125 75.824219 C 106.910156 75.824219 106.910156 76.105469 108.03125 77.882812 Z M 108.03125 77.882812 "/>
<g clip-path="url(#clip1)" clip-rule="nonzero">
<path style=" stroke:none;fill-rule:nonzero;fill:rgb(0%,0%,0%);fill-opacity:1;" d="M 97.382812 80.59375 C 97.101562 81.4375 94.207031 82.839844 90.84375 83.773438 C 71.878906 89.011719 56.746094 94.625 54.503906 97.054688 C 50.769531 101.078125 44.789062 109.402344 41.335938 115.296875 C 36.195312 124.085938 25.640625 139.425781 18.917969 147.75 C 13.683594 154.207031 12.191406 157.011719 9.761719 164.121094 C 6.492188 174.035156 2.101562 192.648438 2.851562 193.863281 C 3.128906 194.238281 20.878906 194.613281 42.363281 194.613281 C 81.40625 194.613281 104.386719 193.957031 103.640625 192.742188 C 103.359375 192.273438 103.828125 189.09375 105.507812 181.703125 C 105.789062 180.582031 106.722656 179.648438 107.65625 179.648438 C 108.496094 179.554688 107.1875 178.523438 104.761719 177.214844 C 100.835938 175.15625 99.808594 174.96875 97.382812 175.8125 C 91.871094 177.777344 88.972656 177.121094 82.808594 172.539062 C 79.632812 170.105469 77.019531 167.582031 77.019531 166.925781 C 77.019531 166.179688 79.257812 162.996094 81.96875 159.816406 C 85.425781 155.796875 87.761719 153.832031 89.441406 153.644531 C 90.75 153.457031 97.289062 155.140625 103.828125 157.292969 C 117.277344 161.6875 126.992188 162.71875 126.992188 159.816406 C 126.992188 156.824219 128.765625 156.167969 135.210938 156.824219 L 141.285156 157.480469 L 138.855469 159.535156 C 137.453125 160.660156 135.679688 161.78125 134.839844 162.0625 C 133.71875 162.53125 133.15625 164.492188 132.691406 169.730469 C 131.757812 179.738281 131.847656 179.648438 126.710938 178.992188 C 120.265625 178.148438 122.042969 179.179688 132.128906 181.984375 C 153.707031 188.066406 159.40625 190.027344 158.84375 191.339844 C 158.566406 192.273438 159.871094 192.742188 164.167969 193.117188 C 173.511719 194.050781 217.039062 194.800781 223.296875 194.144531 L 229.089844 193.582031 L 230.210938 189.28125 C 231.519531 184.042969 230.679688 178.335938 228.0625 174.503906 C 224.980469 169.917969 219.65625 164.585938 217.132812 163.464844 C 215.453125 162.808594 215.171875 162.4375 216.292969 162.15625 C 217.132812 161.96875 219.84375 163.652344 222.363281 165.992188 C 224.886719 168.328125 227.035156 169.824219 227.222656 169.453125 C 227.6875 168.140625 222.832031 159.441406 220.214844 156.730469 C 218.816406 155.421875 215.824219 153.457031 213.492188 152.429688 C 211.15625 151.398438 208.164062 149.902344 207.046875 149.15625 C 204.988281 147.84375 204.988281 147.5625 206.390625 146.535156 C 207.792969 145.507812 207.605469 144.945312 203.683594 141.203125 C 201.347656 138.960938 199.386719 136.621094 199.386719 135.964844 C 199.386719 135.40625 198.542969 134.28125 197.515625 133.535156 C 196.582031 132.878906 194.339844 129.605469 192.753906 126.238281 C 189.859375 120.441406 187.054688 116.042969 184.625 113.425781 C 183.972656 112.675781 182.382812 110.617188 180.984375 108.746094 C 179.582031 106.785156 177.246094 103.976562 175.753906 102.292969 C 173.605469 99.957031 173.136719 98.832031 173.605469 96.867188 C 174.164062 94.8125 173.882812 94.25 172.296875 93.875 C 171.269531 93.59375 170.429688 92.753906 170.429688 92.097656 C 170.429688 91.351562 169.867188 90.789062 169.121094 90.789062 C 168.28125 90.789062 168 91.445312 168.28125 92.472656 C 168.464844 93.410156 167.625 97.992188 166.316406 102.480469 C 165.011719 107.0625 163.890625 112.207031 163.890625 113.890625 C 163.890625 115.574219 163.515625 116.980469 163.140625 116.980469 C 162.769531 116.980469 162.394531 115.203125 162.394531 112.957031 C 162.394531 110.804688 162.019531 106.503906 161.648438 103.417969 C 161.273438 100.328125 160.898438 97.054688 160.808594 96.214844 C 160.714844 95.371094 160.339844 94.90625 159.964844 95.09375 C 159.125 95.652344 159.964844 109.308594 160.898438 110.804688 C 161.179688 111.367188 160.714844 111.273438 159.871094 110.523438 C 158.660156 109.496094 158.285156 107.71875 158.285156 101.917969 C 158.285156 97.804688 158.003906 94.53125 157.628906 94.53125 C 157.164062 94.53125 156.136719 95.183594 155.109375 95.933594 C 153.894531 96.867188 153.519531 97.898438 153.988281 99.582031 C 154.363281 101.078125 154.175781 102.011719 153.613281 102.011719 C 153.054688 102.011719 152.773438 101.640625 153.054688 101.171875 C 153.332031 100.796875 152.960938 99.582031 152.214844 98.644531 C 151 97.054688 150.90625 97.054688 150.8125 98.460938 C 150.8125 99.675781 150.066406 99.957031 147.074219 99.675781 C 144.925781 99.488281 143.339844 99.769531 143.339844 100.234375 C 143.339844 100.796875 142.40625 101.078125 141.285156 100.890625 C 139.414062 100.609375 139.136719 100.144531 139.324219 96.867188 C 139.695312 90.789062 140.070312 90.414062 143.710938 92.566406 C 146.980469 94.625 151.277344 95.183594 152.214844 93.59375 C 152.492188 93.128906 155.109375 92.003906 157.910156 91.164062 C 160.621094 90.414062 162.957031 89.480469 162.957031 89.199219 C 162.957031 88.917969 162.113281 88.917969 161.085938 89.199219 C 159.964844 89.480469 158.285156 88.824219 156.789062 87.515625 C 155.015625 85.925781 151.652344 84.804688 145.859375 83.773438 C 137.546875 82.277344 137.453125 82.277344 134.839844 84.148438 C 133.34375 85.269531 131.757812 86.113281 131.195312 86.113281 C 130.730469 86.113281 130.261719 88.078125 130.261719 90.507812 C 130.167969 96.683594 126.992188 102.949219 122.789062 105.007812 C 118.304688 107.25 111.207031 107.15625 106.253906 104.726562 C 100.183594 101.734375 99.0625 99.488281 98.503906 88.542969 C 98.222656 83.304688 97.753906 79.753906 97.382812 80.59375 Z M 67.675781 95 C 67.675781 95.746094 67.117188 96.402344 66.367188 96.402344 C 65.714844 96.402344 64.59375 95.746094 63.941406 95 C 62.914062 93.78125 63.191406 93.59375 65.246094 93.59375 C 66.742188 93.59375 67.675781 94.0625 67.675781 95 Z M 156.695312 109.027344 C 157.070312 112.207031 156.976562 112.957031 156.417969 111.367188 C 155.667969 109.027344 155.203125 103.230469 155.855469 103.976562 C 156.042969 104.164062 156.417969 106.410156 156.695312 109.027344 Z M 139.324219 108.28125 C 139.042969 109.214844 138.855469 108.652344 138.855469 107.15625 C 138.855469 105.566406 139.042969 104.914062 139.324219 105.472656 C 139.507812 106.128906 139.507812 107.4375 139.324219 108.28125 Z M 145.207031 106.691406 C 145.207031 107.15625 145.019531 107.625 144.832031 107.625 C 144.554688 107.625 144.085938 107.15625 143.804688 106.691406 C 143.527344 106.128906 143.710938 105.753906 144.179688 105.753906 C 144.738281 105.753906 145.207031 106.128906 145.207031 106.691406 Z M 143.710938 114.171875 C 144.179688 116.324219 144.085938 116.980469 143.527344 116.042969 C 143.058594 115.296875 142.40625 113.144531 142.125 111.367188 C 141.75 109.308594 141.84375 108.652344 142.3125 109.496094 C 142.777344 110.246094 143.433594 112.394531 143.710938 114.171875 Z M 146.796875 114.359375 C 146.515625 115.109375 146.234375 114.828125 146.234375 113.796875 C 146.140625 112.769531 146.421875 112.207031 146.703125 112.582031 C 146.980469 112.863281 147.074219 113.707031 146.796875 114.359375 Z M 162.675781 120.90625 C 162.394531 121.65625 162.113281 121.375 162.113281 120.347656 C 162.019531 119.316406 162.300781 118.757812 162.582031 119.128906 C 162.863281 119.410156 162.957031 120.253906 162.675781 120.90625 Z M 160.898438 128.671875 C 160.621094 128.949219 160.058594 128.484375 159.777344 127.546875 C 159.21875 126.238281 159.3125 126.144531 160.246094 126.988281 C 160.898438 127.640625 161.179688 128.390625 160.898438 128.671875 Z M 147.730469 141.484375 C 147.449219 142.234375 147.167969 141.953125 147.167969 140.921875 C 147.074219 139.894531 147.355469 139.332031 147.636719 139.707031 C 147.917969 139.988281 148.007812 140.828125 147.730469 141.484375 Z M 144.925781 147.097656 C 144.648438 147.84375 144.367188 147.5625 144.367188 146.535156 C 144.273438 145.507812 144.554688 144.945312 144.832031 145.320312 C 145.113281 145.601562 145.207031 146.441406 144.925781 147.097656 Z M 172.109375 154.113281 C 175.191406 158.601562 177.621094 162.53125 177.339844 162.996094 C 176.6875 164.121094 169.121094 163.933594 164.355469 162.71875 C 161.554688 161.96875 158.566406 161.96875 155.109375 162.53125 C 152.304688 163.089844 150.15625 163.089844 150.4375 162.625 C 150.71875 162.25 150.34375 161.875 149.691406 161.875 C 149.035156 161.78125 149.972656 161.125 151.746094 160.378906 C 155.480469 158.789062 162.019531 152.335938 162.019531 150.277344 C 162.019531 147.75 163.140625 145.972656 164.824219 145.972656 C 165.757812 145.972656 168.652344 149.15625 172.109375 154.113281 Z M 72.8125 157.292969 C 74.121094 161.40625 75.148438 164.960938 75.148438 165.242188 C 75.148438 166.550781 66.089844 169.453125 60.671875 170.011719 C 55.441406 170.480469 54.597656 170.386719 54.039062 168.890625 C 53.199219 166.738281 54.597656 164.492188 57.679688 162.996094 C 60.015625 161.875 61.417969 160.378906 67.023438 153.082031 C 68.425781 151.210938 69.824219 149.714844 70.011719 149.714844 C 70.199219 149.714844 71.507812 153.082031 72.8125 157.292969 Z M 72.8125 157.292969 "/>
</g>
<path style=" stroke:none;fill-rule:nonzero;fill:rgb(0%,0%,0%);fill-opacity:1;" d="M 126.992188 80.5 C 126.246094 81.714844 127.460938 81.714844 129.328125 80.5 C 130.542969 79.753906 130.542969 79.566406 129.140625 79.566406 C 128.300781 79.566406 127.273438 79.9375 126.992188 80.5 Z M 126.992188 80.5 "/>
<path style=" stroke:none;fill-rule:nonzero;fill:rgb(0%,0%,0%);fill-opacity:1;" d="M 100.929688 83.492188 C 105.320312 90.882812 111.859375 95.464844 117.746094 95.464844 C 122.414062 95.464844 121.480469 94.71875 115.316406 93.59375 C 109.992188 92.566406 107.097656 90.507812 104.011719 85.457031 C 102.890625 83.773438 101.679688 82.371094 101.210938 82.371094 C 100.652344 82.371094 100.558594 82.933594 100.929688 83.492188 Z M 100.929688 83.492188 "/>
<path style=" stroke:none;fill-rule:nonzero;fill:rgb(0%,0%,0%);fill-opacity:1;" d="M 116.0625 87.703125 C 116.71875 87.984375 117.558594 87.890625 117.839844 87.609375 C 118.210938 87.328125 117.652344 87.046875 116.625 87.140625 C 115.597656 87.140625 115.316406 87.421875 116.0625 87.703125 Z M 116.0625 87.703125 "/>
</g>
</svg>
